#tb 0: 1/25
0,          0,          0,        1,   152064, 0x18f494ec
0,          1,          1,        1,   152064, 0x7515e6d7
0,          2,          2,        1,   152064, 0xaa8ee665
0,          3,          3,        1,   152064, 0xa946e180
0,          4,          4,        1,   152064, 0xd1467f7e
0,          5,          5,        1,   152064, 0xd779f4c2
0,          6,          6,        1,   152064, 0xed456fed
0,          7,          7,        1,   152064, 0x4ca23a72
0,          8,          8,        1,   152064, 0x26381cd2
0,          9,          9,        1,   152064, 0x50df40fa
